<?xml version="1.0" encoding="utf-8"?>
<svg xmlns="http://www.w3.org/2000/svg"
     viewBox="0 0 1200 1200">
    <title>Simulo</title>

    <path d="m1182 429.62c9.9375 0 18-8.0508 18-18v-173.87c0-9.9492-8.0625-18-18-18h-108.77v-74.965c0-9.9492-8.0625-18-18-18h-74.977l.003906-108.79c0-9.9492-8.0625-18-18-18h-173.88c-9.9375 0-18 8.0508-18 18v108.79h-82.301v-108.79c0-9.9492-8.0625-18-18-18h-173.94c-9.9492 0-18 8.0508-18 18v108.79h-48.516v-108.79c0-9.9492-8.0508-18-18-18h-173.87c-9.9492 0-18 8.0508-18 18v108.79h-74.965c-9.9492 0-18 8.0508-18 18v74.965h-108.79c-9.9492 0-18 8.0508-18 18v173.87c0 9.9492 8.0508 18 18 18h108.79v48.539h-108.79c-9.9492 0-18 8.0508-18 18v173.87c0 9.9375 8.0508 18 18 18h108.79v82.332h-108.79c-9.9492 0-18 8.0625-18 18v173.86c0 9.9375 8.0508 18 18 18h108.79v75c0 9.9258 8.0508 18 18 18h74.965v108.78c0 9.9375 8.0508 18 18 18h173.87c9.9492 0 18-8.0625 18-18v-108.77h48.516v108.77c0 9.9375 8.0508 18 18 18h173.89c9.9375 0 18-8.0625 18-18v-108.77h82.332v108.77c0 9.9375 8.0625 18 18 18h173.86c9.9375 0 18-8.0625 18-18v-108.77h75c9.9375 0 18-8.0625 18-18v-74.977l108.78.003906c9.9375 0 18-8.0625 18-18v-173.88c0-9.9375-8.0625-18-18-18h-108.77v-82.301h108.77c9.9375 0 18-8.0625 18-18v-173.91c0-9.9492-8.0625-18-18-18h-108.77v-48.539zm-18-173.87v137.87h-90.77v-137.87zm-357.64-219.76h137.86v90.793h-137.86zm-292.22 0h137.94v90.793h-137.94zm-258.38 0h137.87v90.793h-137.87zm-219.76 357.62v-137.87h90.793v137.87zm0 258.41v-137.87h90.793v137.87zm0 292.23v-137.88h90.793v137.86l-90.793-.003906zm357.62 219.74h-137.87v-90.77h137.87zm258.41 0h-137.89v-90.77h137.89zm292.23 0h-137.88v-90.77h137.86l-.003906 90.77zm18-126.77h-799.46v-874.44h74.734c.085937 0 .15625.023437.23828.023437h173.87c.085938 0 .15625-.023437.25391-.023437h84.047c.085937 0 .15625.023437.23828.023437h173.91c.097656 0 .16797-.023437.23828-.023437h117.94c.046875 0 .097656.011719.13281.011719h173.87c.023438 0 .070313-.011719.12109-.011719h74.855v74.496c0 .15625-.046875.30078-.046875.46875v173.87c0 .15625.046875.30078.046875.46875v83.617c0 .15625-.046875.30078-.046875.46875v173.9c0 .16797.046875.30078.046875.46875v117.35c0 .16797-.046875.30078-.046875.46875v173.86c0 .17969.046875.30078.046875.46875v74.531h-74.973zm201.74-230.87v137.86h-90.77v-137.86zm0-292.2v137.91h-90.77v-137.91z" />
    <path d="m953.81 228.19h-707.62c-9.9492 0-18 8.0508-18 18v707.63c0 9.9375 8.0508 18 18 18h707.63c9.9375 0 18-8.0625 18-18v-707.63c-.011718-9.9336-8.0625-18-18.012-18zm-18 707.62h-671.62v-671.62h671.63v671.62z" />

    <g fill="#ffaa00">
        <path d="m254.9 34.656c-1.4333 30.096-.1959 60.656-.60998 90.929 6.2367 6.2216 18.831.90113 27.452 2.6658 37.35-.46861 75.12.93773 112.21-.70406 2.799-14.018.34209-30.128 1.1709-44.925-.63039-16.039 1.2706-32.645-.96822-48.324-45.519-1.4281-91.501-.19978-137.2-.60998l-1.495.70406z" />
        <path d="m512.68 34.656c-1.4333 30.096-.1959 60.656-.60998 90.929 6.2367 6.2216 18.831.90113 27.452 2.6658 37.9-.47359 76.223.94406 113.86-.70406 2.799-14.018.34209-30.128 1.1709-44.925-.63039-16.039 1.2706-32.645-.96822-48.324-46.07-1.4269-92.603-.1987-138.85-.60998l-1.495.70406z" />
        <path d="m805.16 34.656c-1.4333 30.096-.19591 60.656-.60998 90.929 6.2366 6.2216 18.831.90113 27.452 2.6658 37.35-.46861 75.12.93773 112.21-.70406 2.799-14.018.34209-30.128 1.1709-44.925-.6304-16.039 1.2706-32.645-.96823-48.324-45.519-1.4281-91.501-.19978-137.2-.60998l-1.495.70406z" />
        <path d="m1071.2 254.43c-1.427 46.07-.1987 92.603-.61 138.85 6.2366 6.2216 18.831.90113 27.452 2.6658 22.097-.63735 44.765 1.2801 66.501-.96822 1.4269-46.07.1987-92.603.61-138.85-6.2367-6.2216-18.831-.90113-27.452-2.6658-22.081.63715-44.788-1.2796-66.501.96823z" />
        <path d="m1071.2 513.86c-1.4281 45.519-.1998 91.501-.61 137.2 6.2366 6.2216 18.831.90113 27.452 2.6658 22.097-.63735 44.765 1.2801 66.501-.96822 1.428-45.519.1998-91.501.61-137.2-6.2367-6.2216-18.831-.90113-27.452-2.6658-22.081.63715-44.788-1.2796-66.501.96823z" />
        <path d="m1071.2 804.69c-1.427 46.07-.1987 92.603-.61 138.85 6.2366 6.2216 18.831.90113 27.452 2.6658 22.097-.63735 44.765 1.28 66.501-.96823 1.4269-46.07.1987-92.603.61-138.85-6.2367-6.2216-18.831-.90113-27.452-2.6658-22.081.63715-44.788-1.2796-66.501.96822z" />
        <path d="m805.16 1072.4c-1.4333 30.096-.19591 60.656-.60998 90.929 6.2366 6.2216 18.831.9012 27.452 2.6659 37.35-.4686 75.12.9377 112.21-.7041 2.799-14.018.34209-30.128 1.1709-44.925-.6304-16.039 1.2706-32.645-.96823-48.324-45.519-1.4281-91.501-.1998-137.2-.61l-1.495.7041z" />
        <path d="m512.68 1072.4c-1.4333 30.096-.1959 60.656-.60998 90.929 6.2367 6.2216 18.831.9012 27.452 2.6659 37.9-.4736 76.223.944 113.86-.7041 2.799-14.018.34209-30.128 1.1709-44.925-.63039-16.039 1.2706-32.645-.96822-48.324-46.07-1.4269-92.603-.1987-138.85-.61l-1.495.7041z" />
        <path d="m254.9 1072.4c-1.4333 30.096-.1959 60.656-.60998 90.929 6.2367 6.2216 18.831.9012 27.452 2.6659 37.35-.4686 75.12.9377 112.21-.7041 2.799-14.018.34209-30.128 1.1709-44.925-.63039-16.039 1.2706-32.645-.96822-48.324-45.519-1.4281-91.501-.1998-137.2-.61l-1.495.7041z" />
        <path d="m35.124 804.69c-1.4269 46.07-.1987 92.603-.60998 138.85 6.2367 6.2216 18.831.90113 27.452 2.6658 22.097-.63735 44.765 1.28 66.501-.96823 1.4269-46.07.1987-92.603.60998-138.85-6.2367-6.2216-18.831-.90113-27.452-2.6658-22.081.63715-44.788-1.2796-66.501.96822z" />
        <path d="m35.124 513.86c-1.4281 45.519-.19978 91.501-.60998 137.2 6.2367 6.2216 18.831.90113 27.452 2.6658 22.097-.63735 44.765 1.2801 66.501-.96822 1.4281-45.519.19978-91.501.60998-137.2-6.2367-6.2216-18.831-.90113-27.452-2.6658-22.081.63715-44.788-1.2796-66.501.96823z" />
        <path d="m35.124 254.43c-1.4269 46.07-.1987 92.603-.60998 138.85 6.2367 6.2216 18.831.90113 27.452 2.6658 22.097-.63735 44.765 1.2801 66.501-.96822 1.4269-46.07.1987-92.603.60998-138.85-6.2367-6.2216-18.831-.90113-27.452-2.6658-22.081.63715-44.788-1.2796-66.501.96823z" />
    </g>

    <path d="m162.36 161.89c-1.4264 57.087-.20099 114.64-.60998 171.9v702.29c6.2367 6.2216 18.831.9011 27.452 2.6659h847.7c6.2216-6.2367.9012-18.831 2.6659-27.452v-847.7c-6.2367-6.2216-18.831-.90113-27.452-2.6658h-847.7l-1.495.70405zm436.6 68.809c120.72.41044 241.47-.7639 362.16 1.5588 11.157 4.3452 6.1992 18.89 7.8039 28.15 1.6259 197.56.63614 395.14.71833 592.71-.75622 36.246 1.1372 72.794-2.1449 108.82-5.7063 11.863-21.428 5.7322-31.719 7.4143-229 1.2412-458.01 1.6888-687.01.37076-12.308 2.8955-20.984-10.978-18.278-21.937-.90568-236.3.0753-472.61.20738-708.91 6.4549-9.6728 17.002-8.6296 27.323-8.1751h340.93z"
          fill="#007700" />

    <path d="m263.16 262.69c-1.4264 57.087-.20099 114.64-.60998 171.9v500.69c6.2367 6.2216 18.831.90112 27.452 2.6658h644.45c6.2216-6.2367.90112-18.831 2.6658-27.452v-646.1c-6.2367-6.2216-18.831-.90113-27.452-2.6658h-644.45l-1.4949.70406z"
          fill="#aaaaaa" />
</svg>
